<svg width="450" height="68" viewBox="0 0 450 68" fill="none" xmlns="http://www.w3.org/2000/svg">
<path opacity="0.2" d="M58.0781 68H39.8906V67.1094C42.3281 65.3281 43.5469 63.0781 43.5469 60.3594L43.5469 35.3281H14.8125L14.8125 60.3594C14.9062 63.2344 16.1406 65.4844 18.5156 67.1094V68H0.28125L0.28125 67.1094C2.71875 65.3281 3.9375 63.0781 3.9375 60.3594L3.9375 8.46875C3.9375 5.71875 2.71875 3.46875 0.28125 1.71875L0.28125 0.78125H18.5156V1.71875C16.1406 3.34375 14.9062 5.57812 14.8125 8.42188L14.8125 33.5H43.5469V8.46875C43.5469 5.71875 42.3281 3.46875 39.8906 1.71875V0.78125H58.0781V1.71875C55.7344 3.34375 54.5156 5.57812 54.4219 8.42188L54.4219 60.3594C54.5156 63.2344 55.7344 65.4844 58.0781 67.1094V68ZM124.5 68H105.75V67.0625C107.188 66.125 107.906 64.8281 107.906 63.1719C107.906 62.7031 107.828 62.2188 107.672 61.7188L103.969 50.375H75.2344L71.5312 61.7188C71.375 62.2188 71.2969 62.7031 71.2969 63.1719C71.2969 64.8281 72.0156 66.125 73.4531 67.0625V68H64.2188V67.0625C67.0312 65.75 68.9375 63.625 69.9375 60.6875L87.5156 6.78125C87.6406 6.25 87.7031 5.76562 87.7031 5.32813C87.7031 3.89062 87.0625 2.6875 85.7812 1.71875V0.78125L99.2812 0.78125L118.781 60.6875C119.75 63.6562 121.656 65.7812 124.5 67.0625V68ZM103.406 48.5938L89.625 6.21875L75.7969 48.5938H103.406ZM184.172 68H168V67.1094C168.969 66.7656 169.453 66.1406 169.453 65.2344C169.453 64.7969 169.281 64.3594 168.938 63.9219L145.125 35.9844V60.3594C145.219 63.2344 146.453 65.4844 148.828 67.1094V68H130.594V67.1094C133.031 65.3281 134.25 63.0781 134.25 60.3594V8.46875C134.25 5.71875 133.031 3.46875 130.594 1.71875V0.78125H148.828V1.71875C146.453 3.34375 145.219 5.57813 145.125 8.42188V31.9063L170.484 4.85938C170.859 4.45313 171.047 4 171.047 3.5C171.047 2.6875 170.641 2.09375 169.828 1.71875V0.78125H180.422C180.891 0.78125 181.125 1.03125 181.125 1.53125C181.125 1.71875 181.047 1.89063 180.891 2.04688L145.547 34.3906H155.391C175.047 56.1719 184.875 67.1406 184.875 67.2969C184.875 67.7656 184.641 68 184.172 68ZM212.25 68C208 68 203.812 67.0156 199.688 65.0469C193.812 62.2969 189.047 58.1719 185.391 52.6719C181.609 46.7344 179.719 40.3281 179.719 33.4531C179.719 27.1719 181.312 21.3281 184.5 15.9219C186.719 12.1719 189.438 9.03125 192.656 6.5C197.469 2.71875 202.828 0.828125 208.734 0.828125C212.953 0.828125 217.141 1.8125 221.297 3.78125C227.203 6.53125 231.969 10.6563 235.594 16.1563C239.375 21.9688 241.266 28.3594 241.266 35.3281C241.266 41.6406 239.672 47.5 236.484 52.9063C234.266 56.6563 231.547 59.7813 228.328 62.2813C223.547 66.0938 218.188 68 212.25 68ZM213.891 66.0313C214.984 66.0313 216.062 65.9219 217.125 65.7031C220.75 64.8906 223.781 63.0313 226.219 60.125C228.406 57.4688 229.875 54.2656 230.625 50.5156C231.094 48.2344 231.328 45.6563 231.328 42.7813C231.109 34.9688 229.688 27.5938 227.062 20.6563C224.062 12.625 219.844 7.25 214.406 4.53125C212.094 3.375 209.656 2.79688 207.094 2.79688C206 2.79688 204.922 2.90625 203.859 3.125C200.234 3.875 197.203 5.73438 194.766 8.70313C191.391 12.8281 189.703 18.6094 189.703 26.0469C189.891 33.6406 191.297 41.0156 193.922 48.1719C196.984 56.2344 201.203 61.6094 206.578 64.2969C208.984 65.4531 211.422 66.0313 213.891 66.0313ZM263.766 68H245.531V67.1094C247.969 65.2969 249.188 63.0469 249.188 60.3594V8.46875C249.188 5.71875 247.969 3.46875 245.531 1.71875V0.78125C267.031 0.78125 278.062 0.796875 278.625 0.828125C284.719 1.14063 289.688 2.98438 293.531 6.35938C297.594 10.0469 299.625 14.5781 299.625 19.9531C299.625 25.3594 297.594 29.8906 293.531 33.5469C291 35.7656 288.078 37.3125 284.766 38.1875L282.281 38.6094C280.625 38.8906 278 39.0313 274.406 39.0313H260.062V60.3594C260.156 63.2344 261.391 65.4844 263.766 67.1094V68ZM273.703 37.25C275.891 37.25 278.016 36.8125 280.078 35.9375C282.641 34.7813 284.672 32.9219 286.172 30.3594C287.891 27.2969 288.75 23.9531 288.75 20.3281C288.75 18.2969 288.562 16.4844 288.188 14.8906C287.344 10.6719 285.219 7.34375 281.812 4.90625C279.594 3.375 277 2.60938 274.031 2.60938H267.844C265.719 2.60938 263.891 3.375 262.359 4.90625C260.828 6.40625 260.062 8.23438 260.062 10.3906V37.25H273.703ZM322.031 68H303.844V67.1094C306.281 65.3281 307.5 63.0781 307.5 60.3594V8.46875C307.5 5.71875 306.281 3.46875 303.844 1.71875V0.78125H322.031V1.71875C319.688 3.34375 318.469 5.57813 318.375 8.42188V60.3594C318.469 63.2344 319.688 65.4844 322.031 67.1094V68ZM388.406 68L369.656 68V67.0625C371.094 66.125 371.812 64.8281 371.812 63.1719C371.812 62.7031 371.734 62.2188 371.578 61.7188L367.875 50.375H339.141L335.438 61.7188C335.281 62.2188 335.203 62.7031 335.203 63.1719C335.203 64.8281 335.922 66.125 337.359 67.0625V68H328.125V67.0625C330.938 65.75 332.844 63.625 333.844 60.6875L351.422 6.78125C351.547 6.25 351.609 5.76563 351.609 5.32813C351.609 3.89063 350.969 2.6875 349.688 1.71875V0.78125L363.188 0.78125L382.688 60.6875C383.656 63.6563 385.562 65.7813 388.406 67.0625V68ZM367.312 48.5938L353.531 6.21875L339.703 48.5938H367.312ZM449.906 68H436.641L399.984 7.85938V60.3125C399.984 63.0625 401.203 65.3125 403.641 67.0625V68H394.5V67.0625C396.938 65.3125 398.156 63.0625 398.156 60.3125V8.46875C398.156 5.71875 396.938 3.46875 394.5 1.71875V0.78125H408.328L444.422 59.9375V8.46875C444.422 5.71875 443.203 3.46875 440.766 1.71875V0.78125H449.906V1.71875C447.469 3.46875 446.25 5.71875 446.25 8.46875V60.3125C446.25 63.0625 447.469 65.3125 449.906 67.0625V68Z" fill="white"/>
</svg>
