<svg width="790" height="58" viewBox="0 0 790 58" fill="none" xmlns="http://www.w3.org/2000/svg">
<g opacity="0.2">
<path d="M57.6953 57H42.5V56.2578C44.5312 54.7734 45.5469 52.8984 45.5469 50.6328V4.92969L24.5312 57L4.57031 7.50781V50.6328C4.57031 52.8984 5.58594 54.7734 7.61719 56.2578V57H0V56.2578C2.03125 54.7734 3.04688 52.8984 3.04688 50.6328V7.39062C3.04688 5.09896 2.03125 3.22396 0 1.76562V0.984375H11.4844L28.5156 43.25L45.5469 0.984375H57.6953V1.76562C55.7161 3.11979 54.6875 4.98177 54.6094 7.35156V50.6328C54.6875 53.0286 55.7161 54.9036 57.6953 56.2578V57ZM99.4531 57H62.8125V56.2578C64.8698 54.7734 65.8984 52.8984 65.8984 50.6328V7.39062C65.8984 5.09896 64.8698 3.22396 62.8125 1.76562V0.984375H99.4531C100.339 0.984375 100.99 1.46615 101.406 2.42969C102.656 6.4401 103.281 8.54948 103.281 8.75781C103.281 9.7474 102.734 10.4766 101.641 10.9453C101.406 11.0234 101.185 11.0625 100.977 11.0625C100.091 11.0625 99.388 10.6198 98.8672 9.73438C97.7995 7.49479 96.25 5.73698 94.2188 4.46094C92.2135 3.15885 90 2.50781 87.5781 2.50781H82.2656C80.2344 2.50781 78.5026 3.22396 77.0703 4.65625C75.6641 6.08854 74.9609 7.80729 74.9609 9.8125V28.25H82.1484C84.1016 28.25 85.8984 27.7552 87.5391 26.7656C89.2057 25.776 90.5208 24.4089 91.4844 22.6641C91.6927 22.3516 91.9531 22.1953 92.2656 22.1953C92.5 22.1953 92.6953 22.2865 92.8516 22.4688C93.0339 22.625 93.125 22.8203 93.125 23.0547V34.8906C93.125 35.125 93.0339 35.3333 92.8516 35.5156C92.6953 35.6719 92.5 35.75 92.2656 35.75C91.9531 35.75 91.6927 35.6068 91.4844 35.3203C90.5469 33.5755 89.2448 32.2214 87.5781 31.2578C85.9115 30.2682 84.1016 29.7734 82.1484 29.7734H74.9609V48.9922C74.9609 50.7891 75.5859 52.3255 76.8359 53.6016C78.112 54.8776 79.6484 55.5156 81.4453 55.5156H87.5781C90 55.5156 92.2135 54.8646 94.2188 53.5625C96.25 52.2604 97.7995 50.5026 98.8672 48.2891C99.3099 47.4036 99.987 46.9609 100.898 46.9609C101.862 46.9609 102.565 47.3776 103.008 48.2109C103.19 48.5234 103.281 48.862 103.281 49.2266C103.281 49.487 102.656 51.6094 101.406 55.5938C100.99 56.5312 100.339 57 99.4531 57ZM154.531 57H143.477L112.93 6.88281V50.5938C112.93 52.8854 113.945 54.7604 115.977 56.2188V57H108.359V56.2188C110.391 54.7604 111.406 52.8854 111.406 50.5938V7.39062C111.406 5.09896 110.391 3.22396 108.359 1.76562V0.984375H119.883L149.961 50.2812V7.39062C149.961 5.09896 148.945 3.22396 146.914 1.76562V0.984375H154.531V1.76562C152.5 3.22396 151.484 5.09896 151.484 7.39062V50.5938C151.484 52.8854 152.5 54.7604 154.531 56.2188V57ZM160.43 9.07031C160.273 9.07031 160.117 9.00521 159.961 8.875C159.727 8.64062 159.609 8.36719 159.609 8.05469C159.609 7.74219 159.674 7.52083 159.805 7.39062C160.638 5.72396 161.055 3.91406 161.055 1.96094C161.029 1.90885 161.016 1.81771 161.016 1.6875L160.898 0.984375H165.43C165.039 2.88542 164.427 4.47396 163.594 5.75C163.125 6.45312 162.37 7.3776 161.328 8.52344C160.859 8.88802 160.56 9.07031 160.43 9.07031ZM194.023 57C189.362 57 185.013 55.8542 180.977 53.5625C177.122 51.401 173.854 48.5755 171.172 45.0859C170.755 44.487 170.547 43.875 170.547 43.25C170.547 43.0417 170.612 42.6771 170.742 42.1562C170.872 41.6094 171.354 41.1146 172.188 40.6719C172.943 40.3333 173.685 40.1641 174.414 40.1641C176.628 40.1641 178.203 41.2318 179.141 43.3672C181.354 49.3047 184.674 53.0938 189.102 54.7344C190.508 55.2552 191.94 55.5156 193.398 55.5156C197.174 55.5156 200.508 54.1484 203.398 51.4141C205.039 49.7474 205.859 47.8203 205.859 45.6328C205.859 42.1953 203.984 39.6172 200.234 37.8984C198.047 36.9089 195.664 35.9323 193.086 34.9688C189.622 33.6927 186.224 32.2344 182.891 30.5938C179.583 28.9531 176.823 26.8828 174.609 24.3828C172.422 21.8828 171.263 18.7057 171.133 14.8516C171.159 11.987 171.966 9.47396 173.555 7.3125C175.169 5.15104 177.279 3.52344 179.883 2.42969C182.174 1.46615 184.557 0.984375 187.031 0.984375C190.859 0.984375 194.753 1.83073 198.711 3.52344C202.122 5.00781 205.208 6.96094 207.969 9.38281C208.62 9.98177 208.945 10.6849 208.945 11.4922C208.945 11.5703 208.932 11.8438 208.906 12.3125C208.906 12.7812 208.529 13.3151 207.773 13.9141C206.81 14.5911 205.807 14.9297 204.766 14.9297C204.427 14.9297 203.815 14.8385 202.93 14.6562C202.07 14.474 201.224 13.7318 200.391 12.4297C199.219 10.3724 197.812 8.48438 196.172 6.76562C194.115 4.60417 191.641 3.23698 188.75 2.66406C187.969 2.50781 187.201 2.42969 186.445 2.42969C184.18 2.42969 182.135 3.04167 180.312 4.26562C177.656 6.08854 176.328 8.51042 176.328 11.5312C176.328 14.1094 177.396 16.362 179.531 18.2891C181.536 19.8516 183.75 21.1406 186.172 22.1562C188.594 23.1719 191.081 24.0833 193.633 24.8906C196.888 25.9323 200.026 27.1693 203.047 28.6016C206.094 30.0078 208.724 32.026 210.938 34.6562C212.578 37.0521 213.398 39.3698 213.398 41.6094C213.398 42.1042 213.268 43.1589 213.008 44.7734C212.747 46.388 211.562 48.263 209.453 50.3984C207.37 52.5078 204.87 54.1615 201.953 55.3594C199.297 56.4531 196.654 57 194.023 57ZM460.195 57.0391C459.258 57.0391 457.474 56.8698 454.844 56.5312C452.24 56.1927 449.115 54.7214 445.469 52.1172C441.823 49.487 438.893 46.1406 436.68 42.0781C434.466 37.9896 433.359 33.4323 433.359 28.4062C433.359 23.4844 434.818 18.4583 437.734 13.3281C440.208 9.39583 443.464 6.28385 447.5 3.99219C451.042 2.01302 454.844 1.02344 458.906 1.02344C463.281 1.02344 467.539 2.02604 471.68 4.03125C475.221 5.77604 478.151 8.23698 480.469 11.4141C481.12 12.2995 481.445 13.1979 481.445 14.1094C481.445 14.6823 481.211 15.4896 480.742 16.5312C480.299 17.5729 479.401 18.3542 478.047 18.875C477.682 19.0312 477.331 19.1094 476.992 19.1094C476.107 19.1094 475.312 18.6016 474.609 17.5859C474.167 16.1016 473.333 14.3307 472.109 12.2734C470.911 10.2161 469.635 8.47135 468.281 7.03906C465.417 4.09635 462.005 2.625 458.047 2.625C454.089 2.625 450.677 4.08333 447.812 7C444.036 10.9583 442.148 16.6875 442.148 24.1875C442.148 25.8802 442.292 28.1198 442.578 30.9062C442.865 33.6667 443.659 36.8047 444.961 40.3203C446.263 43.8359 448.099 46.8828 450.469 49.4609C452.839 52.0391 455.82 53.7969 459.414 54.7344C460.273 54.9167 461.133 55.0078 461.992 55.0078C463.789 55.0078 465.807 54.526 468.047 53.5625C470.312 52.599 472.565 51.0755 474.805 48.9922C477.044 46.9089 478.815 44.7083 480.117 42.3906C480.299 42.0781 480.56 41.9219 480.898 41.9219C481.237 41.9219 481.497 42.0781 481.68 42.3906C481.758 42.5208 481.797 42.6641 481.797 42.8203C481.797 42.9766 481.758 43.1328 481.68 43.2891C475.924 52.4557 468.763 57.0391 460.195 57.0391ZM521.953 57H485.312V56.2578C487.344 54.7734 488.359 52.8984 488.359 50.6328V7.39062C488.359 5.09896 487.344 3.22396 485.312 1.76562V0.984375H500.508V1.76562C498.529 3.11979 497.513 4.98177 497.461 7.35156V48.9922C497.461 50.7891 498.086 52.3255 499.336 53.6016C500.612 54.8776 502.161 55.5156 503.984 55.5156H510.078C512.5 55.5156 514.714 54.8646 516.719 53.5625C518.75 52.2604 520.299 50.5026 521.367 48.2891C521.784 47.4036 522.474 46.9609 523.438 46.9609C524.453 46.9609 525.143 47.4036 525.508 48.2891C525.664 48.6016 525.742 48.9271 525.742 49.2656C525.742 49.526 525.13 51.6354 523.906 55.5938C523.49 56.5312 522.839 57 521.953 57ZM552.5 57C548.958 57 545.469 56.1797 542.031 54.5391C537.135 52.2474 533.164 48.8099 530.117 44.2266C526.966 39.2786 525.391 33.9401 525.391 28.2109C525.391 22.9766 526.719 18.1068 529.375 13.6016C531.224 10.4766 533.49 7.85938 536.172 5.75C540.182 2.59896 544.648 1.02344 549.57 1.02344C553.086 1.02344 556.576 1.84375 560.039 3.48438C564.961 5.77604 568.932 9.21354 571.953 13.7969C575.104 18.6406 576.68 23.9661 576.68 29.7734C576.68 35.0339 575.352 39.9167 572.695 44.4219C570.846 47.5469 568.581 50.151 565.898 52.2344C561.914 55.4115 557.448 57 552.5 57ZM553.867 55.3594C554.779 55.3594 555.677 55.2682 556.562 55.0859C559.583 54.4089 562.109 52.8594 564.141 50.4375C565.964 48.224 567.188 45.5547 567.812 42.4297C568.203 40.5286 568.398 38.3802 568.398 35.9844C568.216 29.474 567.031 23.3281 564.844 17.5469C562.344 10.8542 558.828 6.375 554.297 4.10938C552.37 3.14583 550.339 2.66406 548.203 2.66406C547.292 2.66406 546.393 2.75521 545.508 2.9375C542.487 3.5625 539.961 5.11198 537.93 7.58594C535.117 11.0234 533.711 15.8411 533.711 22.0391C533.867 28.3672 535.039 34.513 537.227 40.4766C539.779 47.1953 543.294 51.6745 547.773 53.9141C549.779 54.8776 551.81 55.3594 553.867 55.3594ZM661.445 57H646.289V56.2578C648.32 54.7734 649.336 52.8984 649.336 50.6328V27.7812C647.044 27.2604 644.922 27 642.969 27C641.927 27 640.469 27.1562 638.594 27.4688C635.417 27.9635 631.159 29.8906 625.82 33.25C625.69 33.3542 625.547 33.4453 625.391 33.5234V50.6328C625.469 53.0286 626.497 54.9036 628.477 56.2578V57H613.281V56.2578C615.312 54.7734 616.328 52.8984 616.328 50.6328V7.35156C616.328 5.5026 615.625 3.88802 614.219 2.50781H609.492C608.398 2.50781 607.474 2.88542 606.719 3.64062C605.964 4.39583 605.586 5.30729 605.586 6.375V50.6328C605.664 53.0286 606.693 54.9036 608.672 56.2578V57H593.477V56.2578C595.508 54.7734 596.523 52.8984 596.523 50.6328V6.375C596.523 5.30729 596.146 4.39583 595.391 3.64062C594.635 2.88542 593.724 2.50781 592.656 2.50781H592.031C589.609 2.50781 587.383 3.15885 585.352 4.46094C583.32 5.73698 581.771 7.48177 580.703 9.69531C580.286 10.5807 579.583 11.0234 578.594 11.0234C578.385 11.0234 578.164 10.9974 577.93 10.9453C576.862 10.5807 576.328 9.85156 576.328 8.75781C576.328 8.47135 576.94 6.36198 578.164 2.42969C578.581 1.46615 579.232 0.984375 580.117 0.984375H639.375C640.26 0.984375 640.911 1.46615 641.328 2.42969C642.552 6.33594 643.164 8.43229 643.164 8.71875C643.164 9.70833 642.63 10.4505 641.562 10.9453C641.328 10.9974 641.107 11.0234 640.898 11.0234C639.909 11.0234 639.206 10.5807 638.789 9.69531C636.419 5.11198 632.656 2.71615 627.5 2.50781C626.146 3.8099 625.443 5.42448 625.391 7.35156V31.7656C627.448 30.4635 629.635 29.2526 631.953 28.1328C635.495 26.4141 639.154 25.5547 642.93 25.5547C644.909 25.5547 647.044 25.7891 649.336 26.2578V7.35156C649.336 5.08594 648.32 3.21094 646.289 1.72656V0.984375H661.445V1.72656C659.492 3.08073 658.477 4.95573 658.398 7.35156V50.6328C658.477 53.0286 659.492 54.9036 661.445 56.2578V57ZM681.719 57H666.562V56.2578C668.594 54.7734 669.609 52.8984 669.609 50.6328V7.39062C669.609 5.09896 668.594 3.22396 666.562 1.76562V0.984375H681.719V1.76562C679.766 3.11979 678.75 4.98177 678.672 7.35156V50.6328C678.75 53.0286 679.766 54.9036 681.719 56.2578V57ZM732.969 57H721.914L691.367 6.88281V50.5938C691.367 52.8854 692.383 54.7604 694.414 56.2188V57H686.797V56.2188C688.828 54.7604 689.844 52.8854 689.844 50.5938V7.39062C689.844 5.09896 688.828 3.22396 686.797 1.76562V0.984375H698.32L728.398 50.2812V7.39062C728.398 5.09896 727.383 3.22396 725.352 1.76562V0.984375H732.969V1.76562C730.938 3.22396 729.922 5.09896 729.922 7.39062V50.5938C729.922 52.8854 730.938 54.7604 732.969 56.2188V57ZM789.609 57H781.953L780.156 54.9297C779.219 53.888 778.06 53.3672 776.68 53.3672C775.898 53.3672 775.143 53.5755 774.414 53.9922C770.794 55.9974 767.109 57 763.359 57C762.708 57 761.107 56.8828 758.555 56.6484C756.029 56.4141 752.878 55.0208 749.102 52.4688C745.352 49.8906 742.305 46.5312 739.961 42.3906C737.643 38.224 736.484 33.5885 736.484 28.4844C736.484 23.5885 737.956 18.5365 740.898 13.3281C743.372 9.39583 746.628 6.28385 750.664 3.99219C754.206 2.01302 757.995 1.02344 762.031 1.02344C766.432 1.02344 770.703 2.02604 774.844 4.03125C778.385 5.77604 781.302 8.23698 783.594 11.4141C784.245 12.3255 784.57 13.237 784.57 14.1484C784.57 14.6953 784.349 15.4896 783.906 16.5312C783.464 17.5729 782.565 18.3542 781.211 18.875C780.846 19.0312 780.482 19.1094 780.117 19.1094C779.232 19.1094 778.438 18.6016 777.734 17.5859C777.318 16.1016 776.497 14.3307 775.273 12.2734C774.076 10.2161 772.786 8.47135 771.406 7.03906C768.568 4.09635 765.169 2.625 761.211 2.625C757.253 2.625 753.828 4.08333 750.938 7C747.188 10.9323 745.312 16.6615 745.312 24.1875C745.312 25.8802 745.443 28.1198 745.703 30.9062C745.99 33.6667 746.784 36.8047 748.086 40.3203C749.414 43.8359 751.263 46.8828 753.633 49.4609C756.003 52.0391 758.984 53.7969 762.578 54.7344C763.438 54.9167 764.284 55.0078 765.117 55.0078C766.836 55.0078 768.776 54.5781 770.938 53.7188C773.099 52.8333 775.286 51.401 777.5 49.4219V41.5312C777.5 40.151 777.096 38.9141 776.289 37.8203C775.482 36.7005 774.414 35.9193 773.086 35.4766V33.9531H789.609V35.4766C788.672 35.9193 787.93 36.5703 787.383 37.4297C786.836 38.2891 786.562 39.2396 786.562 40.2812V50.6328C786.615 53.0286 787.63 54.9036 789.609 56.2578V57Z" fill="#1A1A1A"/>
</g>
</svg>
