<svg width="804" height="58" viewBox="0 0 804 58" fill="none" xmlns="http://www.w3.org/2000/svg">
<path opacity="0.2" d="M54.0178 57H52.4163L40.1506 26.5703L27.885 57H26.2834L6.71313 8.48438C5.51522 5.56771 3.58813 3.32812 0.931885 1.76562V0.984375H16.5569V1.76562C15.7236 2.80729 15.3069 3.91406 15.3069 5.08594C15.3069 5.73698 15.4371 6.40104 15.6975 7.07812L31.0491 45.2031L39.3694 24.6172L32.8459 8.48438C31.6741 5.59375 29.76 3.35417 27.1038 1.76562V0.984375H42.7288V1.76562C41.8954 2.80729 41.4788 3.92708 41.4788 5.125C41.4788 5.75 41.5959 6.40104 41.8303 7.07812L57.2209 45.2031L72.5725 7.07812C72.8329 6.45312 72.9631 5.8151 72.9631 5.16406C72.9631 3.9401 72.5334 2.80729 71.6741 1.76562V0.984375H79.3694V1.76562C76.7131 3.38021 74.7861 5.61979 73.5881 8.48438L54.0178 57ZM102.182 57C98.6402 57 95.1506 56.1797 91.7131 54.5391C86.8173 52.2474 82.8459 48.8099 79.7991 44.2266C76.648 39.2786 75.0725 33.9401 75.0725 28.2109C75.0725 22.9766 76.4006 18.1068 79.0569 13.6016C80.9058 10.4766 83.1715 7.85938 85.8538 5.75C89.8642 2.59896 94.3303 1.02344 99.2522 1.02344C102.768 1.02344 106.257 1.84375 109.721 3.48438C114.643 5.77604 118.614 9.21354 121.635 13.7969C124.786 18.6406 126.362 23.9661 126.362 29.7734C126.362 35.0339 125.033 39.9167 122.377 44.4219C120.528 47.5469 118.263 50.151 115.58 52.2344C111.596 55.4115 107.13 57 102.182 57ZM103.549 55.3594C104.461 55.3594 105.359 55.2682 106.244 55.0859C109.265 54.4089 111.791 52.8594 113.823 50.4375C115.645 48.224 116.869 45.5547 117.494 42.4297C117.885 40.5286 118.08 38.3802 118.08 35.9844C117.898 29.474 116.713 23.3281 114.526 17.5469C112.026 10.8542 108.51 6.375 103.979 4.10938C102.052 3.14583 100.02 2.66406 97.885 2.66406C96.9736 2.66406 96.0751 2.75521 95.1897 2.9375C92.1689 3.5625 89.6428 5.11198 87.6116 7.58594C84.7991 11.0234 83.3928 15.8411 83.3928 22.0391C83.5491 28.3672 84.7209 34.513 86.9084 40.4766C89.4605 47.1953 92.9762 51.6745 97.4553 53.9141C99.4605 54.8776 101.492 55.3594 103.549 55.3594ZM187.612 57H172.416V56.2578C174.448 54.7734 175.463 52.8984 175.463 50.6328V4.92969L154.448 57L134.487 7.50781V50.6328C134.487 52.8984 135.502 54.7734 137.533 56.2578V57H129.916V56.2578C131.948 54.7734 132.963 52.8984 132.963 50.6328V7.39062C132.963 5.09896 131.948 3.22396 129.916 1.76562V0.984375H141.401L158.432 43.25L175.463 0.984375H187.612V1.76562C185.632 3.11979 184.604 4.98177 184.526 7.35156V50.6328C184.604 53.0286 185.632 54.9036 187.612 56.2578V57ZM229.369 57H192.729V56.2578C194.786 54.7734 195.815 52.8984 195.815 50.6328V7.39062C195.815 5.09896 194.786 3.22396 192.729 1.76562V0.984375H229.369C230.255 0.984375 230.906 1.46615 231.323 2.42969C232.573 6.4401 233.198 8.54948 233.198 8.75781C233.198 9.7474 232.651 10.4766 231.557 10.9453C231.323 11.0234 231.101 11.0625 230.893 11.0625C230.007 11.0625 229.304 10.6198 228.783 9.73438C227.716 7.49479 226.166 5.73698 224.135 4.46094C222.13 3.15885 219.916 2.50781 217.494 2.50781H212.182C210.151 2.50781 208.419 3.22396 206.987 4.65625C205.58 6.08854 204.877 7.80729 204.877 9.8125V28.25H212.065C214.018 28.25 215.815 27.7552 217.455 26.7656C219.122 25.776 220.437 24.4089 221.401 22.6641C221.609 22.3516 221.869 22.1953 222.182 22.1953C222.416 22.1953 222.612 22.2865 222.768 22.4688C222.95 22.625 223.041 22.8203 223.041 23.0547V34.8906C223.041 35.125 222.95 35.3333 222.768 35.5156C222.612 35.6719 222.416 35.75 222.182 35.75C221.869 35.75 221.609 35.6068 221.401 35.3203C220.463 33.5755 219.161 32.2214 217.494 31.2578C215.828 30.2682 214.018 29.7734 212.065 29.7734H204.877V48.9922C204.877 50.7891 205.502 52.3255 206.752 53.6016C208.028 54.8776 209.565 55.5156 211.362 55.5156H217.494C219.916 55.5156 222.13 54.8646 224.135 53.5625C226.166 52.2604 227.716 50.5026 228.783 48.2891C229.226 47.4036 229.903 46.9609 230.815 46.9609C231.778 46.9609 232.481 47.3776 232.924 48.2109C233.106 48.5234 233.198 48.862 233.198 49.2266C233.198 49.487 232.573 51.6094 231.323 55.5938C230.906 56.5312 230.255 57 229.369 57ZM284.448 57H273.393L242.846 6.88281V50.5938C242.846 52.8854 243.862 54.7604 245.893 56.2188V57H238.276V56.2188C240.307 54.7604 241.323 52.8854 241.323 50.5938V7.39062C241.323 5.09896 240.307 3.22396 238.276 1.76562V0.984375H249.799L279.877 50.2812V7.39062C279.877 5.09896 278.862 3.22396 276.83 1.76562V0.984375H284.448V1.76562C282.416 3.22396 281.401 5.09896 281.401 7.39062V50.5938C281.401 52.8854 282.416 54.7604 284.448 56.2188V57ZM290.346 9.07031C290.19 9.07031 290.033 9.00521 289.877 8.875C289.643 8.64062 289.526 8.36719 289.526 8.05469C289.526 7.74219 289.591 7.52083 289.721 7.39062C290.554 5.72396 290.971 3.91406 290.971 1.96094C290.945 1.90885 290.932 1.81771 290.932 1.6875L290.815 0.984375H295.346C294.955 2.88542 294.343 4.47396 293.51 5.75C293.041 6.45312 292.286 7.3776 291.244 8.52344C290.776 8.88802 290.476 9.07031 290.346 9.07031ZM323.94 57C319.278 57 314.929 55.8542 310.893 53.5625C307.039 51.401 303.77 48.5755 301.088 45.0859C300.671 44.487 300.463 43.875 300.463 43.25C300.463 43.0417 300.528 42.6771 300.658 42.1562C300.789 41.6094 301.27 41.1146 302.104 40.6719C302.859 40.3333 303.601 40.1641 304.33 40.1641C306.544 40.1641 308.119 41.2318 309.057 43.3672C311.27 49.3047 314.591 53.0938 319.018 54.7344C320.424 55.2552 321.856 55.5156 323.315 55.5156C327.091 55.5156 330.424 54.1484 333.315 51.4141C334.955 49.7474 335.776 47.8203 335.776 45.6328C335.776 42.1953 333.901 39.6172 330.151 37.8984C327.963 36.9089 325.58 35.9323 323.002 34.9688C319.539 33.6927 316.14 32.2344 312.807 30.5938C309.5 28.9531 306.739 26.8828 304.526 24.3828C302.338 21.8828 301.179 18.7057 301.049 14.8516C301.075 11.987 301.882 9.47396 303.471 7.3125C305.086 5.15104 307.195 3.52344 309.799 2.42969C312.091 1.46615 314.474 0.984375 316.948 0.984375C320.776 0.984375 324.669 1.83073 328.627 3.52344C332.039 5.00781 335.125 6.96094 337.885 9.38281C338.536 9.98177 338.862 10.6849 338.862 11.4922C338.862 11.5703 338.849 11.8438 338.823 12.3125C338.823 12.7812 338.445 13.3151 337.69 13.9141C336.726 14.5911 335.724 14.9297 334.682 14.9297C334.343 14.9297 333.731 14.8385 332.846 14.6562C331.987 14.474 331.14 13.7318 330.307 12.4297C329.135 10.3724 327.729 8.48438 326.088 6.76562C324.031 4.60417 321.557 3.23698 318.666 2.66406C317.885 2.50781 317.117 2.42969 316.362 2.42969C314.096 2.42969 312.052 3.04167 310.229 4.26562C307.573 6.08854 306.244 8.51042 306.244 11.5312C306.244 14.1094 307.312 16.362 309.448 18.2891C311.453 19.8516 313.666 21.1406 316.088 22.1562C318.51 23.1719 320.997 24.0833 323.549 24.8906C326.804 25.9323 329.942 27.1693 332.963 28.6016C336.01 30.0078 338.64 32.026 340.854 34.6562C342.494 37.0521 343.315 39.3698 343.315 41.6094C343.315 42.1042 343.184 43.1589 342.924 44.7734C342.664 46.388 341.479 48.263 339.369 50.3984C337.286 52.5078 334.786 54.1615 331.869 55.3594C329.213 56.4531 326.57 57 323.94 57ZM394.799 57.0391C393.862 57.0391 392.078 56.8698 389.448 56.5312C386.843 56.1927 383.718 54.7214 380.073 52.1172C376.427 49.487 373.497 46.1406 371.283 42.0781C369.07 37.9896 367.963 33.4323 367.963 28.4062C367.963 23.4844 369.421 18.4583 372.338 13.3281C374.812 9.39583 378.067 6.28385 382.104 3.99219C385.645 2.01302 389.448 1.02344 393.51 1.02344C397.885 1.02344 402.143 2.02604 406.283 4.03125C409.825 5.77604 412.755 8.23698 415.073 11.4141C415.724 12.2995 416.049 13.1979 416.049 14.1094C416.049 14.6823 415.815 15.4896 415.346 16.5312C414.903 17.5729 414.005 18.3542 412.651 18.875C412.286 19.0312 411.934 19.1094 411.596 19.1094C410.711 19.1094 409.916 18.6016 409.213 17.5859C408.77 16.1016 407.937 14.3307 406.713 12.2734C405.515 10.2161 404.239 8.47135 402.885 7.03906C400.02 4.09635 396.609 2.625 392.651 2.625C388.692 2.625 385.281 4.08333 382.416 7C378.64 10.9583 376.752 16.6875 376.752 24.1875C376.752 25.8802 376.895 28.1198 377.182 30.9062C377.468 33.6667 378.263 36.8047 379.565 40.3203C380.867 43.8359 382.703 46.8828 385.073 49.4609C387.442 52.0391 390.424 53.7969 394.018 54.7344C394.877 54.9167 395.737 55.0078 396.596 55.0078C398.393 55.0078 400.411 54.526 402.651 53.5625C404.916 52.599 407.169 51.0755 409.408 48.9922C411.648 46.9089 413.419 44.7083 414.721 42.3906C414.903 42.0781 415.164 41.9219 415.502 41.9219C415.841 41.9219 416.101 42.0781 416.283 42.3906C416.362 42.5208 416.401 42.6641 416.401 42.8203C416.401 42.9766 416.362 43.1328 416.283 43.2891C410.528 52.4557 403.367 57.0391 394.799 57.0391ZM536.244 57H499.604V56.2578C501.635 54.7734 502.651 52.8984 502.651 50.6328V7.39062C502.651 5.09896 501.635 3.22396 499.604 1.76562V0.984375H514.799V1.76562C512.82 3.11979 511.804 4.98177 511.752 7.35156V48.9922C511.752 50.7891 512.377 52.3255 513.627 53.6016C514.903 54.8776 516.453 55.5156 518.276 55.5156H524.369C526.791 55.5156 529.005 54.8646 531.01 53.5625C533.041 52.2604 534.591 50.5026 535.658 48.2891C536.075 47.4036 536.765 46.9609 537.729 46.9609C538.744 46.9609 539.434 47.4036 539.799 48.2891C539.955 48.6016 540.033 48.9271 540.033 49.2656C540.033 49.526 539.421 51.6354 538.198 55.5938C537.781 56.5312 537.13 57 536.244 57ZM566.791 57C563.25 57 559.76 56.1797 556.323 54.5391C551.427 52.2474 547.455 48.8099 544.408 44.2266C541.257 39.2786 539.682 33.9401 539.682 28.2109C539.682 22.9766 541.01 18.1068 543.666 13.6016C545.515 10.4766 547.781 7.85938 550.463 5.75C554.474 2.59896 558.94 1.02344 563.862 1.02344C567.377 1.02344 570.867 1.84375 574.33 3.48438C579.252 5.77604 583.224 9.21354 586.244 13.7969C589.395 18.6406 590.971 23.9661 590.971 29.7734C590.971 35.0339 589.643 39.9167 586.987 44.4219C585.138 47.5469 582.872 50.151 580.19 52.2344C576.205 55.4115 571.739 57 566.791 57ZM568.158 55.3594C569.07 55.3594 569.968 55.2682 570.854 55.0859C573.875 54.4089 576.401 52.8594 578.432 50.4375C580.255 48.224 581.479 45.5547 582.104 42.4297C582.494 40.5286 582.69 38.3802 582.69 35.9844C582.507 29.474 581.323 23.3281 579.135 17.5469C576.635 10.8542 573.119 6.375 568.588 4.10938C566.661 3.14583 564.63 2.66406 562.494 2.66406C561.583 2.66406 560.684 2.75521 559.799 2.9375C556.778 3.5625 554.252 5.11198 552.221 7.58594C549.408 11.0234 548.002 15.8411 548.002 22.0391C548.158 28.3672 549.33 34.513 551.518 40.4766C554.07 47.1953 557.586 51.6745 562.065 53.9141C564.07 54.8776 566.101 55.3594 568.158 55.3594ZM675.737 57H660.58V56.2578C662.612 54.7734 663.627 52.8984 663.627 50.6328V27.7812C661.336 27.2604 659.213 27 657.26 27C656.218 27 654.76 27.1562 652.885 27.4688C649.708 27.9635 645.45 29.8906 640.112 33.25C639.981 33.3542 639.838 33.4453 639.682 33.5234V50.6328C639.76 53.0286 640.789 54.9036 642.768 56.2578V57H627.573V56.2578C629.604 54.7734 630.619 52.8984 630.619 50.6328V7.35156C630.619 5.5026 629.916 3.88802 628.51 2.50781H623.783C622.69 2.50781 621.765 2.88542 621.01 3.64062C620.255 4.39583 619.877 5.30729 619.877 6.375V50.6328C619.955 53.0286 620.984 54.9036 622.963 56.2578V57H607.768V56.2578C609.799 54.7734 610.815 52.8984 610.815 50.6328V6.375C610.815 5.30729 610.437 4.39583 609.682 3.64062C608.927 2.88542 608.015 2.50781 606.948 2.50781H606.323C603.901 2.50781 601.674 3.15885 599.643 4.46094C597.612 5.73698 596.062 7.48177 594.994 9.69531C594.578 10.5807 593.875 11.0234 592.885 11.0234C592.677 11.0234 592.455 10.9974 592.221 10.9453C591.153 10.5807 590.619 9.85156 590.619 8.75781C590.619 8.47135 591.231 6.36198 592.455 2.42969C592.872 1.46615 593.523 0.984375 594.408 0.984375H653.666C654.552 0.984375 655.203 1.46615 655.619 2.42969C656.843 6.33594 657.455 8.43229 657.455 8.71875C657.455 9.70833 656.921 10.4505 655.854 10.9453C655.619 10.9974 655.398 11.0234 655.19 11.0234C654.2 11.0234 653.497 10.5807 653.08 9.69531C650.711 5.11198 646.948 2.71615 641.791 2.50781C640.437 3.8099 639.734 5.42448 639.682 7.35156V31.7656C641.739 30.4635 643.927 29.2526 646.244 28.1328C649.786 26.4141 653.445 25.5547 657.221 25.5547C659.2 25.5547 661.336 25.7891 663.627 26.2578V7.35156C663.627 5.08594 662.612 3.21094 660.58 1.72656V0.984375H675.737V1.72656C673.783 3.08073 672.768 4.95573 672.69 7.35156V50.6328C672.768 53.0286 673.783 54.9036 675.737 56.2578V57ZM696.01 57H680.854V56.2578C682.885 54.7734 683.901 52.8984 683.901 50.6328V7.39062C683.901 5.09896 682.885 3.22396 680.854 1.76562V0.984375H696.01V1.76562C694.057 3.11979 693.041 4.98177 692.963 7.35156V50.6328C693.041 53.0286 694.057 54.9036 696.01 56.2578V57ZM747.26 57H736.205L705.658 6.88281V50.5938C705.658 52.8854 706.674 54.7604 708.705 56.2188V57H701.088V56.2188C703.119 54.7604 704.135 52.8854 704.135 50.5938V7.39062C704.135 5.09896 703.119 3.22396 701.088 1.76562V0.984375H712.612L742.69 50.2812V7.39062C742.69 5.09896 741.674 3.22396 739.643 1.76562V0.984375H747.26V1.76562C745.229 3.22396 744.213 5.09896 744.213 7.39062V50.5938C744.213 52.8854 745.229 54.7604 747.26 56.2188V57ZM803.901 57H796.244L794.448 54.9297C793.51 53.888 792.351 53.3672 790.971 53.3672C790.19 53.3672 789.434 53.5755 788.705 53.9922C785.086 55.9974 781.401 57 777.651 57C777 57 775.398 56.8828 772.846 56.6484C770.32 56.4141 767.169 55.0208 763.393 52.4688C759.643 49.8906 756.596 46.5312 754.252 42.3906C751.934 38.224 750.776 33.5885 750.776 28.4844C750.776 23.5885 752.247 18.5365 755.19 13.3281C757.664 9.39583 760.919 6.28385 764.955 3.99219C768.497 2.01302 772.286 1.02344 776.323 1.02344C780.724 1.02344 784.994 2.02604 789.135 4.03125C792.677 5.77604 795.593 8.23698 797.885 11.4141C798.536 12.3255 798.862 13.237 798.862 14.1484C798.862 14.6953 798.64 15.4896 798.198 16.5312C797.755 17.5729 796.856 18.3542 795.502 18.875C795.138 19.0312 794.773 19.1094 794.408 19.1094C793.523 19.1094 792.729 18.6016 792.026 17.5859C791.609 16.1016 790.789 14.3307 789.565 12.2734C788.367 10.2161 787.078 8.47135 785.698 7.03906C782.859 4.09635 779.461 2.625 775.502 2.625C771.544 2.625 768.119 4.08333 765.229 7C761.479 10.9323 759.604 16.6615 759.604 24.1875C759.604 25.8802 759.734 28.1198 759.994 30.9062C760.281 33.6667 761.075 36.8047 762.377 40.3203C763.705 43.8359 765.554 46.8828 767.924 49.4609C770.294 52.0391 773.276 53.7969 776.869 54.7344C777.729 54.9167 778.575 55.0078 779.408 55.0078C781.127 55.0078 783.067 54.5781 785.229 53.7188C787.39 52.8333 789.578 51.401 791.791 49.4219V41.5312C791.791 40.151 791.388 38.9141 790.58 37.8203C789.773 36.7005 788.705 35.9193 787.377 35.4766V33.9531H803.901V35.4766C802.963 35.9193 802.221 36.5703 801.674 37.4297C801.127 38.2891 800.854 39.2396 800.854 40.2812V50.6328C800.906 53.0286 801.921 54.9036 803.901 56.2578V57Z" fill="#1A1A1A"/>
</svg>
